<?xml version="1.0" encoding="UTF-8"?>
<svg id="Layer_1" data-name="Layer 1" xmlns="http://www.w3.org/2000/svg" viewBox="0 0 38.6 56.66">
  <defs>
    <style>
      .cls-1 {
        fill: #ccc;
      }
    </style>
  </defs>
  <path d="M13.17,42.5H2.79L11.77,0h10.93l-3.04,14.27c3.1-3.1,6.07-3.7,8.74-3.7,2.43,0,5.59.3,7.89,3.28.97,1.21,2.31,3.58,2.31,7.95,0,4.8-1.46,10.5-4.8,15.12-3.04,4.19-6.86,6.74-12.51,6.74-2.49,0-5.28-.79-7.22-4.13h-.24l-.67,2.97ZM16.08,31.08c0,.91.06,1.82.55,2.73.61,1.09,1.58,1.76,3.1,1.76.85,0,2.12-.3,3.58-1.58.85-.79,2.12-2.25,3.1-5.16.55-1.64.91-3.46.91-5.04,0-.79-.12-2.31-.91-3.34-.42-.55-1.27-1.27-2.79-1.27-1.15,0-2.61.55-3.95,2-1.46,1.52-2.67,4.31-3.22,6.74-.24,1.03-.36,2.12-.36,3.16Z"/>
  <polygon class="cls-1" points="2.1 46.79 0 56.66 31.76 56.66 33.86 46.79 2.1 46.79"/>
</svg>